# xmcd
#
# Track frame offsets: 
#        150
#        19349
#        38992
#        56254
#        74640
#        94076
#        112957
#        127833
#        146158
#        158609
#        182950
#        200881
#        217156
#        236180
#        252982
#        267090
#        284963
#        299629
#
# Disc length: 4195 seconds
#
# Revision: 0
# Processed by: cddbd v1.5.2PL0 Copyright (c) Steve Scherf et al.
# Submitted via: ExactAudioCopy v1.2
#
DISCID=2c106112
DTITLE=Charlie Landsborough - The Very Best Of, CD2
DYEAR=2011
DGENRE=Country
TTITLE0=Love You Every Second
TTITLE1=Speed Of The Sound Of Loneliness
TTITLE2=I Will Love You All My Life
TTITLE3=To Make You Feel My Love
TTITLE4=Early Morning Rain
TTITLE5=My Forever Friend
TTITLE6=Lord I Hope This Day Is Good
TTITLE7=Too Good To Last
TTITLE8=Take These Chains
TTITLE9=Centuries
TTITLE10=Rolling Uphill
TTITLE11=What'll I Do
TTITLE12=I Am Red
TTITLE13=When The Counting's Done
TTITLE14=Me And The Elephant
TTITLE15=Australia In My Heart
TTITLE16=I'll Have To Say I Love You In A Song
TTITLE17=Put Your Hand In The Hand
EXTD=
EXTT0=
EXTT1=
EXTT2=
EXTT3=
EXTT4=
EXTT5=
EXTT6=
EXTT7=
EXTT8=
EXTT9=
EXTT10=
EXTT11=
EXTT12=
EXTT13=
EXTT14=
EXTT15=
EXTT16=
EXTT17=
PLAYORDER=
